#!OML:ASF H:\Male1\Project 1\Capture day 1\Session 1\Male1.ASF
:FULLY-SPECIFIED
:DEGREES
378
root 10.5113 15.5576 1.73012 178.477 4.26115 -179.466
lowerback 5.45146 1.82049 0.448335
upperback 2.65718 2.59098 -0.988846
thorax -0.256435 1.36985 -1.40865
lowerneck -2.44971 10.2894 12.8956
upperneck -0.400999 13.5145 -10.4948
head 1.86682 6.65403 -4.69796
rclavicle -1.43622e-014 -3.97569e-016
rhumerus -36.3446 -1.26864 -85.1542
rradius 33.5967
rwrist -20.1378
rhand -19.7713 1.4336
rfingers 7.12502
rthumb 6.56056 -28.4448
lclavicle -1.43622e-014 -3.97569e-016
lhumerus -26.7263 4.422 85.6459
lradius 33.2585
lwrist -0.50435
lhand -22.6037 10.2632
lfingers 7.12502
lthumb 3.82579 40.2086
rfemur -2.56917 18.6576 25.0846
rtibia 20.1468
rfoot -28.1749 -33.2147
rtoes -12.8668
lfemur -2.40864 -21.2378 -20.8397
ltibia 21.6967
lfoot -24.8624 28.2566
ltoes 5.26971
379
root 10.5087 15.5566 1.73234 178.409 4.22655 -179.484
lowerback 5.47728 1.83002 0.422108
upperback 2.67211 2.60425 -0.992015
thorax -0.256075 1.37711 -1.39862
lowerneck -2.49797 10.2405 12.8294
upperneck -0.392077 13.443 -10.4206
head 1.85916 6.61783 -4.66889
rclavicle 5.36719e-015 1.82882e-014
rhumerus -36.355 -1.35614 -85.1338
rradius 33.5467
rwrist -20.0913
rhand -19.7623 1.39166
rfingers 7.12502
rthumb 6.56927 -28.4864
lclavicle 5.36719e-015 1.82882e-014
lhumerus -26.532 6.15788 85.2086
lradius 32.5722
lwrist -1.02514
lhand -22.6594 10.6314
lfingers 7.12502
lthumb 3.772 40.5777
rfemur -2.50871 18.6403 25.0752
rtibia 20.1611
rfoot -28.1897 -33.2182
rtoes -12.8257
lfemur -2.35303 -21.1991 -20.8844
ltibia 21.7015
lfoot -24.8282 28.1934
ltoes 5.29054
380
root 10.5059 15.5558 1.73458 178.347 4.2012 -179.486
lowerback 5.51016 1.84651 0.410683
upperback 2.67661 2.62665 -0.990714
thorax -0.269681 1.38857 -1.39332
lowerneck -2.53799 10.1858 12.7962
upperneck -0.363059 13.366 -10.3744
head 1.85985 6.57909 -4.65311
rclavicle -2.85753e-014 4.77083e-015
rhumerus -36.3805 -1.46282 -85.1111
rradius 33.4808
rwrist -20.0422
rhand -19.7711 1.36907
rfingers 7.12502
rthumb 6.5608 -28.5093
lclavicle -2.85753e-014 4.77083e-015
lhumerus -26.3891 7.78734 84.7633
lradius 31.8645
lwrist -1.54706
lhand -22.6814 10.9879
lfingers 7.12502
lthumb 3.75073 40.9347
rfemur -2.45426 18.6324 25.0814
rtibia 20.1687
rfoot -28.176 -33.2455
rtoes -12.8501
lfemur -2.30617 -21.1636 -20.9096
ltibia 21.7115
lfoot -24.8099 28.1266
ltoes 5.34926
381
root 10.5027 15.5553 1.73671 178.3 4.18315 -179.466
lowerback 5.54482 1.86448 0.429225
upperback 2.66568 2.65113 -0.986839
thorax -0.298853 1.40062 -1.40272
lowerneck -2.57353 10.1302 12.7912
upperneck -0.305755 13.2895 -10.3376
head 1.87086 6.54111 -4.6436
rclavicle 1.71949e-014 1.55052e-014
rhumerus -36.4249 -1.56346 -85.0959
rradius 33.4043
rwrist -20.0009
rhand -19.7889 1.36543
rfingers 7.12502
rthumb 6.54358 -28.5135
lclavicle 1.71949e-014 1.55052e-014
lhumerus -26.3062 9.26865 84.3056
lradius 31.1485
lwrist -2.05827
lhand -22.673 11.2921
lfingers 7.12502
lthumb 3.75885 41.2387
rfemur -2.40542 18.6249 25.1048
rtibia 20.1564
rfoot -28.1472 -33.2748
rtoes -12.9039
lfemur -2.28043 -21.1426 -20.9087
ltibia 21.7378
lfoot -24.8179 28.062
ltoes 5.4529
382
root 10.4988 15.555 1.73863 178.267 4.17195 -179.42
lowerback 5.57674 1.88332 0.494958
upperback 2.64441 2.67813 -0.988098
thorax -0.334661 1.41389 -1.44406
lowerneck -2.61417 10.0754 12.7933
upperneck -0.227385 13.2139 -10.278
head 1.88781 6.50401 -4.62743
rclavicle 1.38652e-014 -1.94809e-014
rhumerus -36.4808 -1.66569 -85.0932
rradius 33.3243
rwrist -19.9655
rhand -19.7952 1.37341
rfingers 7.12502
rthumb 6.5375 -28.5057
lclavicle 1.38652e-014 -1.94809e-014
lhumerus -26.2797 10.5496 83.8358
lradius 30.449
lwrist -2.55028
lhand -22.6357 11.5229
lfingers 7.12502
lthumb 3.79492 41.4689
rfemur -2.35772 18.6169 25.1481
rtibia 20.1205
rfoot -28.1017 -33.307
rtoes -12.987
lfemur -2.27497 -21.1374 -20.882
ltibia 21.784
lfoot -24.8515 28.007
ltoes 5.57664
383
root 10.4944 15.5548 1.74025 178.244 4.16765 -179.357
lowerback 5.60946 1.89876 0.583396
upperback 2.61326 2.70092 -0.98631
thorax -0.380228 1.4247 -1.49506
lowerneck -2.65418 10.0277 12.782
upperneck -0.13893 13.1482 -10.1875
head 1.90567 6.47241 -4.59923
rclavicle -1.14798e-014 1.15295e-014
rhumerus -36.5481 -1.74628 -85.0968
rradius 33.2512
rwrist -19.9383
rhand -19.7725 1.37846
rfingers 7.12502
rthumb 6.5594 -28.5
lclavicle -1.14798e-014 1.15295e-014
lhumerus -26.319 11.6195 83.3682
lradius 29.7901
lwrist -3.01474
lhand -22.5712 11.6603
lfingers 7.12502
lthumb 3.85716 41.6051
rfemur -2.31077 18.6226 25.2076
rtibia 20.0669
rfoot -28.0545 -33.3458
rtoes -13.068
lfemur -2.28549 -21.1389 -20.8357
ltibia 21.8447
lfoot -24.895 27.9674
ltoes 5.66032
384
root 10.49 15.5547 1.74163 178.229 4.16852 -179.296
lowerback 5.63545 1.91757 0.674124
upperback 2.58079 2.72829 -0.991638
thorax -0.422741 1.43779 -1.55467
lowerneck -2.69761 9.98343 12.7658
upperneck -0.0535094 13.0858 -10.0743
head 1.92163 6.44259 -4.56325
rclavicle -1.28713e-014 -2.78299e-015
rhumerus -36.6181 -1.84804 -85.1013
rradius 33.1921
rwrist -19.9019
rhand -19.7148 1.37378
rfingers 7.12502
rthumb 6.61514 -28.5029
lclavicle -1.28713e-014 -2.78299e-015
lhumerus -26.4127 12.4389 82.9142
lradius 29.1955
lwrist -3.45292
lhand -22.4578 11.6924
lfingers 7.12502
lthumb 3.96671 41.6353
rfemur -2.26724 18.6528 25.2647
rtibia 20.0064
rfoot -28.0133 -33.3977
rtoes -13.1385
lfemur -2.30661 -21.1289 -20.789
ltibia 21.909
lfoot -24.9212 27.9402
ltoes 5.65998
385
root 10.486 15.5547 1.74276 178.218 4.17393 -179.246
lowerback 5.65865 1.95081 0.757429
upperback 2.54624 2.77464 -1.01353
thorax -0.46462 1.46044 -1.62817
lowerneck -2.73523 9.93055 12.7829
upperneck 0.0185349 13.0107 -9.96764
head 1.93396 6.40652 -4.53568
rclavicle -3.0265e-014 4.77083e-015
rhumerus -36.699 -2.03067 -85.1017
rradius 33.1557
rwrist -19.841
rhand -19.6387 1.35739
rfingers 7.12502
rthumb 6.68864 -28.517
lclavicle -3.0265e-014 4.77083e-015
lhumerus -26.5685 13.0212 82.4676
lradius 28.6973
lwrist -3.9056
lhand -22.2632 11.6223
lfingers 7.12502
lthumb 4.15466 41.5615
rfemur -2.2302 18.7141 25.3137
rtibia 19.9498
rfoot -27.9449 -33.4941
rtoes -13.291
lfemur -2.33062 -21.0949 -20.7502
ltibia 21.966
lfoot -24.9113 27.9234
ltoes 5.5649
386
root 10.4824 15.5551 1.74364 178.206 4.17803 -179.211
lowerback 5.68064 1.99961 0.829999
upperback 2.51239 2.84159 -1.0542
thorax -0.503747 1.49359 -1.71608
lowerneck -2.76326 9.86328 12.8518
upperneck 0.0669939 12.9149 -9.88833
head 1.94076 6.35995 -4.52639
rclavicle -2.95692e-014 9.93923e-015
rhumerus -36.791 -2.29346 -85.1056
rradius 33.1486
rwrist -19.775
rhand -19.5798 1.33425
rfingers 7.12502
rthumb 6.74544 -28.5383
lclavicle -2.95692e-014 9.93923e-015
lhumerus -26.7875 13.4628 82.0095
lradius 28.3175
lwrist -4.40948
lhand -21.9542 11.4545
lfingers 7.12502
lthumb 4.453 41.3877
rfemur -2.19932 18.7991 25.3526
rtibia 19.9026
rfoot -27.8351 -33.6416
rtoes -13.5698
lfemur -2.35184 -21.0348 -20.721
ltibia 22.0095
lfoot -24.8679 27.906
ltoes 5.403
387
root 10.479 15.5558 1.74426 178.192 4.17431 -179.194
lowerback 5.70117 2.05507 0.886486
upperback 2.4817 2.91715 -1.11048
thorax -0.53819 1.53131 -1.81144
lowerneck -2.7771 9.78598 12.9659
upperneck 0.0872612 12.8049 -9.84076
head 1.94046 6.30613 -4.53566
rclavicle 6.31141e-015 -1.19271e-014
rhumerus -36.8881 -2.59049 -85.1253
rradius 33.1715
rwrist -19.7342
rhand -19.5724 1.31201
rfingers 7.12502
rthumb 6.75265 -28.5603
lclavicle 6.31141e-015 -1.19271e-014
lhumerus -27.0687 13.8927 81.5127
lradius 28.0593
lwrist -4.9334
lhand -21.5372 11.2143
lfingers 7.12502
lthumb 4.85569 41.1386
rfemur -2.17464 18.8961 25.3711
rtibia 19.8666
rfoot -27.7258 -33.8068
rtoes -13.8838
lfemur -2.36734 -20.9622 -20.7085
ltibia 22.0388
lfoot -24.8059 27.8829
ltoes 5.22964
388
root 10.4754 15.5566 1.74476 178.175 4.16137 -179.187
lowerback 5.72439 2.1058 0.931075
upperback 2.45308 2.98619 -1.17333
thorax -0.572195 1.56589 -1.90665
lowerneck -2.77518 9.70865 13.1098
upperneck 0.0847355 12.6953 -9.81988
head 1.93456 6.25231 -4.55863
rclavicle -1.2921e-014 -1.59028e-014
rhumerus -36.9822 -2.88238 -85.1636
rradius 33.2139
rwrist -19.7196
rhand -19.6233 1.29558
rfingers 7.12502
rthumb 6.70346 -28.5783
lclavicle -1.2921e-014 -1.59028e-014
lhumerus -27.413 14.4379 80.9511
lradius 27.9158
lwrist -5.39089
lhand -21.0671 10.9586
lfingers 7.12502
lthumb 5.30956 40.8721
rfemur -2.15058 18.9923 25.37
rtibia 19.8296
rfoot -27.6585 -33.9474
rtoes -14.1073
lfemur -2.37695 -20.8998 -20.709
ltibia 22.0571
lfoot -24.7429 27.8615
ltoes 5.08171
389
root 10.4712 15.5573 1.74525 178.148 4.13889 -179.192
lowerback 5.75882 2.1375 0.950154
upperback 2.42978 3.02913 -1.22874
thorax -0.609526 1.58739 -1.97893
lowerneck -2.76666 9.64773 13.2561
upperneck 0.0736883 12.6085 -9.81789
head 1.92897 6.20966 -4.58648
rclavicle -4.19933e-014 9.93923e-015
rhumerus -37.0609 -3.10068 -85.2208
rradius 33.2643
rwrist -19.7306
rhand -19.7098 1.27805
rfingers 7.12502
rthumb 6.61993 -28.5985
lclavicle -4.19933e-014 9.93923e-015
lhumerus -27.8177 15.1883 80.322
lradius 27.8745
lwrist -5.67306
lhand -20.6193 10.7677
lfingers 7.12502
lthumb 5.74194 40.6699
rfemur -2.11917 19.0467 25.3466
rtibia 19.793
rfoot -27.6215 -34.0258
rtoes -14.2404
lfemur -2.38024 -20.8548 -20.7295
ltibia 22.081
lfoot -24.6926 27.8409
ltoes 4.94355
390
root 10.4668 15.5595 1.74517 178.147 4.09796 -179.206
lowerback 5.75502 2.1543 0.969835
upperback 2.39865 3.05113 -1.29693
thorax -0.633692 1.59819 -2.06192
lowerneck -2.73829 9.58745 13.472
upperneck 0.0444457 12.5237 -9.87596
head 1.92334 6.16763 -4.6438
rclavicle 2.84262e-014 -3.57812e-015
rhumerus -37.1497 -3.2208 -85.3425
rradius 33.3478
rwrist -19.8508
rhand -19.9184 1.26092
rfingers 7.12502
rthumb 6.41856 -28.6218
lclavicle 2.84262e-014 -3.57812e-015
lhumerus -28.2842 16.0719 79.5948
lradius 27.8699
lwrist -6.39674
lhand -19.6993 10.2262
lfingers 7.12502
lthumb 6.63014 40.1024
rfemur -2.13161 19.2193 25.3029
rtibia 19.8005
rfoot -27.8529 -34.0682
rtoes -13.966
lfemur -2.39998 -20.8597 -20.7555
ltibia 22.0793
lfoot -24.6678 27.8212
ltoes 5.03291
391
root 10.461 15.5575 1.74601 178.091 4.06619 -179.241
lowerback 5.82371 2.12278 0.95735
upperback 2.40112 3.01036 -1.33177
thorax -0.669773 1.57848 -2.09151
lowerneck -2.79852 9.59666 13.4432
upperneck 0.0831802 12.5272 -9.75358
head 1.9345 6.16952 -4.5988
rclavicle 1.63003e-014 1.59028e-015
rhumerus -37.1372 -3.34319 -85.3938
rradius 33.3427
rwrist -19.7331
rhand -19.9757 1.25193
rfingers 7.12502
rthumb 6.36326 -28.6325
lclavicle 1.63003e-014 1.59028e-015
lhumerus -28.7777 17.1953 78.8433
lradius 28.0192
lwrist -5.74785
lhand -19.6656 10.6727
lfingers 7.12502
lthumb 6.66259 40.5479
rfemur -2.13689 19.2135 25.2098
rtibia 19.869
rfoot -28.2673 -33.7996
rtoes -13.0084
lfemur -2.3418 -20.8704 -20.8345
ltibia 22.0429
lfoot -24.5741 27.8898
ltoes 4.6783
